<svg width="40" height="41" viewBox="0 0 40 41" xmlns="http://www.w3.org/2000/svg">
    <path
        d="M20 22.75L19.512 23.1404C19.6306 23.2887 19.8101 23.375 20 23.375C20.1899 23.375 20.3694 23.2887 20.488 23.1404L20 22.75ZM22.988 20.0154C23.2037 19.7459 23.16 19.3526 22.8904 19.137C22.6209 18.9213 22.2276 18.965 22.012 19.2346L22.988 20.0154ZM17.988 19.2346C17.7724 18.965 17.3791 18.9213 17.1096 19.137C16.84 19.3526 16.7963 19.7459 17.012 20.0154L17.988 19.2346ZM20.488 23.1404L22.988 20.0154L22.012 19.2346L19.512 22.3596L20.488 23.1404ZM20.488 22.3596L17.988 19.2346L17.012 20.0154L19.512 23.1404L20.488 22.3596ZM20.625 22.75V13.375H19.375V22.75H20.625Z" />
    <rect x="15" y="26.5" width="10" height="1.25" rx="0.625" />
</svg>