<svg width="40" height="40" viewBox="0 0 40 40" xmlns="http://www.w3.org/2000/svg">
    <path fill-rule="evenodd" clip-rule="evenodd"
        d="M14.7263 19.3927C17.5625 18.157 19.4537 17.3424 20.4 16.9488C23.1018 15.825 23.6632 15.6298 24.0291 15.6234C24.1096 15.6219 24.2895 15.6419 24.4061 15.7365C24.5045 15.8163 24.5316 15.9242 24.5446 15.9999C24.5575 16.0757 24.5737 16.2482 24.5608 16.3829C24.4144 17.9213 23.7809 21.6545 23.4586 23.3775C23.3222 24.1065 23.0537 24.351 22.7937 24.3749C22.2288 24.4269 21.7997 24.0015 21.2525 23.6428C20.3963 23.0816 19.9125 22.7321 19.0814 22.1844C18.1208 21.5514 18.7435 21.2035 19.2909 20.635C19.4342 20.4862 21.9235 18.222 21.9717 18.0166C21.9777 17.9909 21.9833 17.8952 21.9264 17.8446C21.8695 17.794 21.7855 17.8113 21.725 17.8251C21.6391 17.8446 20.2712 18.7487 17.6213 20.5375C17.233 20.8041 16.8813 20.934 16.5662 20.9272C16.2188 20.9197 15.5506 20.7308 15.0539 20.5693C14.4446 20.3712 13.9604 20.2665 14.0026 19.9302C14.0245 19.755 14.2658 19.5758 14.7263 19.3927Z" />
</svg>