<svg width="52" height="75" viewBox="0 0 52 75" fill="none" xmlns="http://www.w3.org/2000/svg">
    <g style="mix-blend-mode:difference">
        <path
            d="M48.1514 7.80371C47.6436 7.80371 47.1654 7.7085 46.7168 7.51807C46.2725 7.3234 45.881 7.0568 45.5425 6.71826C45.2039 6.37972 44.9373 5.98828 44.7427 5.54395C44.5522 5.09538 44.457 4.61719 44.457 4.10938C44.457 3.60156 44.5522 3.12549 44.7427 2.68115C44.9373 2.23258 45.2039 1.83903 45.5425 1.50049C45.881 1.16195 46.2725 0.897461 46.7168 0.707031C47.1654 0.51237 47.6436 0.415039 48.1514 0.415039C48.6634 0.415039 49.1416 0.51237 49.5859 0.707031C50.0345 0.897461 50.4281 1.16195 50.7666 1.50049C51.1051 1.83903 51.3696 2.23258 51.5601 2.68115C51.7505 3.12549 51.8457 3.60156 51.8457 4.10938C51.8457 4.61719 51.7505 5.09538 51.5601 5.54395C51.3696 5.98828 51.1051 6.37972 50.7666 6.71826C50.4281 7.0568 50.0345 7.3234 49.5859 7.51807C49.1416 7.7085 48.6634 7.80371 48.1514 7.80371ZM48.1514 6.91504C48.6719 6.91504 49.1437 6.7902 49.5669 6.54053C49.9901 6.28662 50.3265 5.94808 50.5762 5.5249C50.8301 5.09749 50.957 4.62565 50.957 4.10938C50.957 3.5931 50.8301 3.12337 50.5762 2.7002C50.3265 2.27279 49.9901 1.93424 49.5669 1.68457C49.1437 1.43066 48.6719 1.30371 48.1514 1.30371C47.6351 1.30371 47.1632 1.43066 46.7358 1.68457C46.3127 1.93424 45.9741 2.27279 45.7202 2.7002C45.4705 3.12337 45.3457 3.5931 45.3457 4.10938C45.3457 4.62565 45.4705 5.09749 45.7202 5.5249C45.9741 5.94808 46.3127 6.28662 46.7358 6.54053C47.1632 6.7902 47.6351 6.91504 48.1514 6.91504ZM46.8564 5.77246V2.37012H48.583C48.7227 2.36589 48.875 2.40397 49.04 2.48438C49.2051 2.56055 49.3447 2.67904 49.459 2.83984C49.5775 3.00065 49.6367 3.20378 49.6367 3.44922C49.6367 3.6862 49.5817 3.88932 49.4717 4.05859C49.3617 4.22363 49.2305 4.3527 49.0781 4.4458L49.7764 5.77246H48.9512L48.3481 4.61719H47.6055V5.77246H46.8564ZM47.6055 4.05859H48.3037C48.4053 4.06283 48.5153 4.01416 48.6338 3.9126C48.7523 3.81104 48.8115 3.65658 48.8115 3.44922C48.8115 3.24186 48.7502 3.10221 48.6274 3.03027C48.509 2.9541 48.4053 2.91602 48.3164 2.91602H47.6055V4.05859Z"
            fill="white" />
    </g>
    <g style="mix-blend-mode:difference">
        <path
            d="M45.9547 38.28C45.9547 48.173 44.0848 57.004 40.3418 63.3172C36.6309 69.5763 31.1005 73.3508 23.582 73.3508C16.0636 73.3508 10.5332 69.5763 6.82227 63.3172C3.07927 57.004 1.20933 48.173 1.20933 38.28C1.20933 28.3871 3.07927 19.5561 6.82227 13.2429C10.5332 6.98382 16.0636 3.20933 23.582 3.20933C31.1005 3.20933 36.6309 6.98382 40.3418 13.2429C44.0848 19.5561 45.9547 28.3871 45.9547 38.28Z"
            stroke="white" stroke-width="2.41867" />
    </g>
    <path
        d="M15.1172 44.3267C15.1172 44.3267 16.3265 39.4894 23.5825 39.187C30.8385 38.8847 32.0479 34.0474 32.0479 34.0474"
        stroke="#FFDF58" stroke-width="2.1768" />
    <g style="mix-blend-mode:difference">
        <path
            d="M14.0164 34.0469V14.6904H17.1992L22.1097 27.1877C22.231 27.4821 22.3739 27.8545 22.5384 28.3049C22.7116 28.7466 22.8849 29.2056 23.0581 29.6819C23.2399 30.1496 23.4002 30.5783 23.5387 30.968C23.6773 30.5783 23.8332 30.1496 24.0064 29.6819C24.1883 29.2056 24.3615 28.7466 24.526 28.3049C24.6993 27.8545 24.8422 27.4821 24.9547 27.1877L29.7874 14.6904H32.9831V34.0469H30.6837V22.8227C30.6837 22.1299 30.6924 21.3591 30.7097 20.5104C30.727 19.653 30.7444 18.8042 30.7617 17.9641C30.3893 18.9861 30.0472 19.9214 29.7354 20.7702C29.4236 21.6189 29.1638 22.3031 28.9559 22.8227L24.4611 34.0469H22.5384L18.0176 22.8227C17.8184 22.3291 17.5673 21.6839 17.2641 20.8871C16.961 20.0903 16.6232 19.2113 16.2508 18.2499C16.2768 19.0467 16.2941 19.8435 16.3028 20.6403C16.3201 21.437 16.3288 22.1645 16.3288 22.8227V34.0469H14.0164Z"
            fill="white" />
    </g>
    <g style="mix-blend-mode:difference">
        <path
            d="M14.0164 43.7227V63.0791H17.1992L22.1097 50.5819C22.231 50.2874 22.3739 49.915 22.5384 49.4646C22.7116 49.0229 22.8849 48.5639 23.0581 48.0876C23.2399 47.6199 23.4002 47.1912 23.5387 46.8015C23.6773 47.1912 23.8332 47.6199 24.0064 48.0876C24.1883 48.5639 24.3615 49.0229 24.526 49.4646C24.6993 49.915 24.8422 50.2874 24.9547 50.5819L29.7874 63.0791H32.9831V43.7227H30.6837V54.9468C30.6837 55.6396 30.6924 56.4104 30.7097 57.2592C30.727 58.1166 30.7444 58.9653 30.7617 59.8054C30.3893 58.7834 30.0472 57.8481 29.7354 56.9994C29.4236 56.1506 29.1638 55.4664 28.9559 54.9468L24.4611 43.7227H22.5384L18.0176 54.9468C17.8184 55.4405 17.5673 56.0857 17.2641 56.8824C16.961 57.6792 16.6232 58.5583 16.2508 59.5196C16.2768 58.7228 16.2941 57.926 16.3028 57.1293C16.3201 56.3325 16.3288 55.605 16.3288 54.9468V43.7227H14.0164Z"
            fill="white" />
    </g>
</svg>