<svg width="47" height="38" viewBox="0 0 47 38" fill="none" xmlns="http://www.w3.org/2000/svg">
    <path
        d="M20.8889 4.21442C18.6777 5.47874 16.8899 6.57917 15.5255 7.51571C14.1612 8.40542 12.7733 9.59951 11.3619 11.098C10.0445 12.5028 9.03303 13.9778 8.32733 15.5231C7.62162 17.0684 7.12763 19.0585 6.84535 21.4935H10.2327C13.1496 21.4935 15.4314 22.2193 17.0781 23.671C18.7718 25.0758 19.6186 27.1596 19.6186 29.9224C19.6186 31.8891 18.8659 33.7388 17.3604 35.4713C15.9019 37.1571 13.8789 38 11.2913 38C7.24524 38 4.35185 36.6888 2.61111 34.0665C0.87037 31.3974 0 27.9088 0 23.6007C0 20.557 0.658659 17.7942 1.97598 15.3124C3.29329 12.7837 4.89289 10.536 6.77477 8.56932C8.7037 6.55576 10.7502 4.84658 12.9144 3.44177C15.0786 2.03697 16.8899 0.88971 18.3483 0L20.8889 4.21442ZM47 4.21442C44.7888 5.47874 43.001 6.57917 41.6366 7.51571C40.2723 8.40542 38.8844 9.59951 37.473 11.098C36.1086 12.5496 35.0736 14.0481 34.3679 15.5933C33.7092 17.0918 33.2387 19.0585 32.9565 21.4935H36.3438C39.2608 21.4935 41.5425 22.2193 43.1892 23.671C44.8829 25.0758 45.7297 27.1596 45.7297 29.9224C45.7297 31.8891 44.977 33.7388 43.4715 35.4713C42.013 37.1571 39.99 38 37.4024 38C33.3564 38 30.463 36.6888 28.7222 34.0665C26.9815 31.3974 26.1111 27.9088 26.1111 23.6007C26.1111 20.557 26.7698 17.7942 28.0871 15.3124C29.4044 12.7837 31.004 10.536 32.8859 8.56932C34.8148 6.55576 36.8614 4.84658 39.0255 3.44177C41.1897 2.03697 43.001 0.88971 44.4595 0L47 4.21442Z"
        fill="white" />
</svg>