<svg width="52" height="52" viewBox="0 0 52 52" fill="none" xmlns="http://www.w3.org/2000/svg">
    <path fill-rule="evenodd" clip-rule="evenodd"
        d="M37.137 14.8631C43.2878 21.0138 43.2878 30.9862 37.137 37.1369C30.9863 43.2877 21.0139 43.2877 14.8632 37.1369C8.71243 30.9861 8.71243 21.0138 14.8632 14.8631C21.014 8.71231 30.9863 8.71231 37.137 14.8631"
        fill="#977E53" />
    <path fill-rule="evenodd" clip-rule="evenodd"
        d="M26 9.2749C26.5385 9.2749 26.975 9.71142 26.975 10.2499C26.975 19.4876 19.4878 26.9749 10.25 26.9749C9.71155 26.9749 9.27502 26.5384 9.27502 25.9999C9.27502 25.4614 9.71155 25.0249 10.25 25.0249C18.4108 25.0249 25.025 18.4107 25.025 10.2499C25.025 9.71142 25.4615 9.2749 26 9.2749Z"
        fill="#21170F" />
    <path fill-rule="evenodd" clip-rule="evenodd"
        d="M41.75 26.875C33.534 26.875 26.875 33.534 26.875 41.75C26.875 42.2332 26.4832 42.625 26 42.625C25.5168 42.625 25.125 42.2332 25.125 41.75C25.125 32.5675 32.5675 25.125 41.75 25.125C42.2332 25.125 42.625 25.5168 42.625 26C42.625 26.4832 42.2332 26.875 41.75 26.875Z"
        fill="#21170F" />
</svg>