<svg width="52" height="52" viewBox="0 0 52 52" fill="none" xmlns="http://www.w3.org/2000/svg">
    <path
        d="M1.11078 27.2329C0.8682 24.2845 1.02448 21.3176 1.57496 18.4115C2.14176 15.813 2.91849 15.048 3.28937 15.006L4.70056 14.8451C4.68657 14.9034 4.6749 14.9594 4.66091 15.0177L4.65858 15.02C3.9145 18.927 3.69989 22.9182 4.02413 26.8808C4.22706 30.8624 4.99213 34.7927 6.29602 38.56L4.8195 38.7279C4.6259 38.7256 4.4393 38.644 4.30401 38.5063C3.02347 37.4334 1.51432 33.2182 1.11078 27.2329ZM9.71062 41.4684C9.92755 41.6877 10.2261 41.8089 10.5363 41.8043L13.3167 41.4894C11.243 39.0799 9.59627 33.1762 9.13213 26.2979V26.3002C8.8079 22.3349 9.02016 18.3441 9.76424 14.437C10.0232 13.0469 10.5037 11.708 11.1848 10.4694L8.50932 10.7727C6.81825 10.9639 4.8589 17.1476 5.50971 26.7787C6.03686 34.5622 8.02182 40.06 9.71062 41.4692V41.4684ZM10.618 26.1998C11.1428 33.9834 13.1277 39.4812 14.8165 40.8904V40.888C15.0357 41.1096 15.3343 41.2309 15.6422 41.2263C17.072 41.063 18.8961 36.4049 18.7608 28.0476C17.8138 28.1713 16.8948 28.3159 16.0084 28.4908L15.9804 28.4955C14.9378 28.6588 14.0864 27.868 13.8112 26.4779C13.5126 24.9711 13.9581 23.2356 15.2154 22.9347L15.2457 22.9277C16.2627 22.7295 17.31 22.5615 18.383 22.4239C17.5899 15.76 15.8382 11.6452 14.4107 10.4999H14.4083C14.1961 10.2969 13.9115 10.1873 13.62 10.1943C11.9266 10.3879 9.96948 16.5687 10.618 26.1998ZM38.0488 24.0772C38.45 25.1385 38.3427 26.9812 37.5473 27.9329C37.2651 28.2968 36.8336 28.5137 36.3717 28.523C36.2807 28.523 36.1874 28.5137 36.0988 28.495C35.1611 28.3294 34.2071 28.1871 33.2368 28.0682C33.1038 36.4142 34.9302 41.0629 36.3554 41.2259C36.6656 41.2305 36.9618 41.1093 37.1811 40.89C38.8698 39.4811 40.8548 33.9836 41.3796 26.1994C42.0281 16.566 40.0688 10.3875 38.3777 10.1934C38.0838 10.1864 37.7992 10.2961 37.587 10.499C36.1571 11.6466 34.4031 15.7705 33.61 22.4463C34.6783 22.577 35.7349 22.7356 36.7822 22.9198C37.3887 23.0365 37.8785 23.4843 38.0465 24.0768L38.0488 24.0772ZM15.2762 26.1928C15.3718 26.671 15.5817 27.0442 15.7427 27.0279V27.0255C19.0572 26.4074 22.4233 26.1065 25.7959 26.1229C29.3344 26.1182 32.8659 26.4214 36.3508 27.0255C36.633 26.6547 36.7823 26.1998 36.7729 25.7333C36.8499 25.2714 36.7659 24.7956 36.5327 24.3898C29.5959 23.1465 22.493 23.1465 15.5538 24.3898C15.3695 24.4481 15.0873 25.2435 15.2739 26.1881L15.2762 26.1928ZM45.704 38.5624L47.1805 38.7303V38.728C47.3765 38.7256 47.5607 38.6463 47.696 38.5064C48.9789 37.4381 50.4881 33.2185 50.8916 27.2356H50.8893C51.1319 24.2873 50.9756 21.3179 50.4228 18.4118C49.856 15.8134 49.0792 15.0483 48.7084 15.0063L47.2972 14.8454C47.3112 14.9037 47.3228 14.9597 47.3368 15.018L47.3392 15.0203C48.0832 18.9273 48.2978 22.9185 47.9736 26.8811C47.7707 30.8604 47.0056 34.793 45.7017 38.5579L45.704 38.5624ZM42.8653 26.3003C42.4012 33.1792 40.7497 39.0824 38.6808 41.4919L41.4611 41.8068V41.8044C41.7713 41.8091 42.0699 41.6878 42.2868 41.4685C43.9756 40.0597 45.9605 34.5622 46.4854 26.778C47.1338 17.1469 45.1745 10.9636 43.4857 10.772L40.8103 10.4687C41.4937 11.7073 41.9719 13.0462 42.2331 14.4364C42.9772 18.3434 43.1895 22.3346 42.8653 26.2995L42.8653 26.3003Z"
        fill="#977E53" />
</svg>