<svg width="52" height="52" viewBox="0 0 52 52" fill="none" xmlns="http://www.w3.org/2000/svg">
    <path
        d="M42.6559 9.90949C42.8935 9.49447 43.2418 9.2197 43.3075 8.58696C43.3437 4.329 38.5753 4.8496 37.269 7.8808C37.4553 8.63557 36.9786 9.72452 36.1147 9.86107C36.1147 9.86107 35.2221 9.9966 34.5444 9.56291C33.8668 9.1292 32.0109 8.79681 32.0109 8.79681C29.9046 8.86025 27.7983 8.93872 25.692 9.20307L23.7181 9.51641L19.8959 11.9889L17.566 13.812C16.0586 14.3865 14.948 14.9309 13.4934 16.3594C13.3824 16.4685 13.4998 16.4874 13.542 16.466C13.9303 16.2683 14.1231 16.0058 14.6674 15.7698L13.4963 16.6348C13.259 16.81 13.4334 16.8301 13.6867 16.6941C14.2346 16.3999 14.8962 15.8927 15.3153 15.8399C14.6982 16.0958 14.1106 16.5248 13.5587 17.0003C13.3151 17.2102 13.826 17.1425 14.3322 16.838C15.0391 16.4128 15.231 16.4282 16.173 16.0556L15.3829 16.7912C15.1114 16.9882 15.2602 17.3638 15.8011 17.1366L17.2061 16.4662C17.9563 16.1517 18.2109 15.6307 18.3536 15.063C19.7953 13.6433 22.2646 12.659 24.7022 11.6612C25.1643 11.4184 27.6341 11.9326 30.3647 11.9279C31.2847 12.3115 30.6153 12.9841 30.5159 13.5531C29.573 15.4642 30.1931 17.8721 29.269 19.5951C26.3832 22.4606 23.2304 22.3359 23.4537 27.1332L18.2782 33.4989C15.4354 33.5593 14.442 36.2397 12.6939 37.851C11.823 38.6004 10.9848 39.8082 10.0684 39.9208C9.10574 39.4194 8.35244 40.169 7.37989 40.0121C6.39176 40.8908 7.40758 42.409 8.03038 43.8018C8.08409 44.2676 8.34391 46.9567 11.0341 46.4326C11.3312 46.3158 11.32 46.0228 11.2641 45.7042L10.4688 44.7051C10.4306 44.3825 10.3777 44.0581 10.7371 43.7851C11.2881 43.3755 11.8051 42.927 11.757 41.8296L15.1027 39.0424L18.8706 36.1807L22.0403 34.7973L27.1296 30.7798C27.9954 30.0963 28.3713 29.2755 28.9097 28.5166C30.9831 28.7582 33.1081 29.0515 34.8345 28.9461L30.9523 33.4963C30.2865 32.6957 29.2972 32.607 28.4659 32.1704C27.2886 34.4253 26.6186 36.9169 26.2061 39.5287C26.1114 40.0771 27.0564 40.2682 27.2232 39.9541C28.3237 38.045 29.6899 36.9335 31.3525 36.711L31.3254 35.6809L39.0535 30.2445C39.9593 29.2937 41.6211 28.734 40.579 26.7757C39.8454 25.4547 38.394 25.0724 37.0204 24.5884L33.1236 23.0719C34.077 22.025 35.1072 21.074 35.8712 19.7901C36.6041 19.6344 37.3415 19.5192 38.0251 18.9188L42.4945 21.8737C42.8628 22.1407 43.5988 22.5073 44.0651 21.6632C44.0651 21.6632 44.9456 19.5343 45.0201 18.3281C45.099 17.05 44.7942 14.4929 44.7942 14.4929C44.9734 13.9054 45.1135 13.1691 44.65 12.4108L43.4578 10.4606C43.2999 10.2023 43.1039 10.2867 43.2228 10.5181L43.6405 11.3314C43.5424 11.4462 43.2494 10.5658 42.8476 10.1005C42.763 10.0025 42.5904 10.0453 42.675 10.21L43.2968 11.4192C43.2274 11.565 42.8001 10.653 42.5349 10.2242C42.433 10.0717 42.2656 10.1743 42.3387 10.3229L42.8856 11.4339C42.7083 11.4388 42.5339 10.8627 42.3479 10.5948C42.2232 10.4151 42.0921 10.496 42.1591 10.6798L42.7571 12.3198C42.412 12.1477 42.3627 12.0962 42.0994 12.0746C41.7969 12.0497 41.588 12.2399 41.8005 12.3445C42.0998 12.5257 42.6273 13.0191 42.7118 13.4867C42.8364 13.9584 43.2533 14.2193 43.6198 14.6911C43.9472 16.6199 43.1902 17.6678 42.3841 18.6757C41.7237 17.8939 40.5152 17.2902 40.1478 16.9065C39.8849 15.5319 38.7686 15.0962 37.9084 14.1294C37.5738 13.7533 37.2273 13.237 37.5683 12.8044C37.9076 12.271 38.2982 12.1232 38.6701 11.8352C38.9624 12.3756 39.2288 12.9807 39.5456 13.0262C39.9016 13.0773 39.9897 12.8596 40.3653 12.5528C40.5161 12.5271 40.6682 12.5065 40.7693 12.2817C40.9321 12.262 41.0558 12.1878 41.0913 11.9899L41.2948 11.8837C41.4549 11.9372 41.6093 12.0137 41.8187 11.8702C41.9652 11.7915 42.0185 10.7346 42.1184 10.1669L42.6559 9.90949Z"
        fill="#977E53" />
</svg>