<svg width="52" height="52" viewBox="0 0 52 52" fill="none" xmlns="http://www.w3.org/2000/svg">
    <path fill-rule="evenodd" clip-rule="evenodd"
        d="M26 9.47803C30.5548 9.47803 34.6812 11.3281 37.6668 14.32C38.1846 14.8377 38.6679 15.3899 39.1125 15.9736C39.1297 15.9922 39.144 16.0123 39.1584 16.0338C41.2551 18.8046 42.5 22.2566 42.5 26C42.5 29.4951 41.4158 32.7379 39.5643 35.4082C39.5585 35.4182 39.5513 35.4268 39.5442 35.4354C38.9849 36.2385 38.3567 36.9901 37.6668 37.6799C34.6795 40.6716 30.5548 42.5218 26 42.5218C21.4452 42.5218 17.3188 40.6717 14.3332 37.6799C13.6433 36.9901 13.0152 36.2385 12.4558 35.4354C12.4487 35.4268 12.4429 35.4168 12.4357 35.4082C10.5842 32.7377 9.5 29.4953 9.5 26C9.5 22.2569 10.7448 18.8032 12.8416 16.0338C12.8545 16.0123 12.8703 15.9922 12.8875 15.9736C13.3335 15.3899 13.8154 14.8377 14.3332 14.32C17.3205 11.3283 21.4452 9.47803 26 9.47803ZM31.3794 24.234L36.1681 22.1889L38.0856 16.2786C37.7328 15.8397 37.3571 15.4195 36.9598 15.0208C35.4238 13.4834 33.568 12.2672 31.5 11.4813L26.4991 15.1183V20.6813L31.3795 24.2324L31.3794 24.234ZM29.8434 30.9561L32.7677 34.5057H35.8196V34.5072H38.9676C40.4405 32.2598 41.3469 29.605 41.4831 26.7468L36.5094 23.1283L31.7207 25.1735L29.8448 30.9546L29.8434 30.9561ZM22.948 31.5613L20.0238 35.1109L21.9284 40.9809C23.2248 41.3337 24.5916 41.5216 26 41.5216C27.4098 41.5216 28.7737 41.3337 30.0717 40.9809L31.9763 35.1109L29.052 31.5613H22.948ZM20.2791 25.1748L15.4904 23.1297L10.5166 26.7481C10.6514 29.605 11.5578 32.2583 13.0307 34.5056H16.1802V34.507H19.2306L22.1564 30.9546L20.2805 25.1735L20.2791 25.1748ZM15.8303 22.1903L20.619 24.2354L25.4995 20.6844V15.1214L20.4986 11.4844C18.4306 12.2703 16.5735 13.4865 15.0388 15.0239C14.6415 15.4226 14.2657 15.8414 13.913 16.2817L15.8305 22.192L15.8303 22.1903Z"
        fill="#977E53" />
</svg>