<svg width="52" height="52" viewBox="0 0 52 52" fill="none" xmlns="http://www.w3.org/2000/svg">
    <path
        d="M2.5635 21.5881C3.65504 22.1938 5.20956 22.5413 6.82835 22.5413C8.44714 22.5413 10.0017 22.1938 11.0932 21.5881C12.5192 20.7972 14.4092 20.3626 16.4147 20.3626C18.4202 20.3626 20.3103 20.7983 21.7363 21.5881C22.8278 22.1938 24.3823 22.5413 26.0011 22.5413C27.6199 22.5413 29.1744 22.1938 30.266 21.5881C31.6919 20.7972 33.5809 20.3626 35.5875 20.3626C37.5941 20.3626 39.4841 20.7983 40.909 21.5881C42.0006 22.1938 43.5551 22.5413 45.1739 22.5413C46.7927 22.5413 48.3472 22.1938 49.4387 21.5881L49.9671 21.2951V17.0847C49.9679 16.9155 49.9288 16.7485 49.853 16.5972C49.7772 16.446 49.6668 16.3147 49.5307 16.2141C49.3947 16.1135 49.2368 16.0464 49.07 16.0182C48.9032 15.9901 48.732 16.0016 48.5705 16.052C47.5215 16.3853 46.3428 16.5498 45.1739 16.5498C43.4483 16.5498 41.6988 16.1914 40.3807 15.4605C39.0626 14.7295 37.313 14.3711 35.5875 14.3711C33.8619 14.3711 32.1124 14.7295 30.7943 15.4605C29.4762 16.1914 27.7267 16.5498 26.0011 16.5498C24.2756 16.5498 22.5261 16.1914 21.2079 15.4605C19.8898 14.7295 18.1403 14.3711 16.4147 14.3711C14.6892 14.3711 12.9397 14.7295 11.6215 15.4605C10.3034 16.1914 8.5539 16.5498 6.82835 16.5498C5.66055 16.5498 4.48077 16.3853 3.43172 16.052C2.73671 15.8319 2.03516 16.3624 2.03516 17.0912V21.2951L2.5635 21.5881Z"
        fill="#977E53" />
    <path
        d="M6.82662 30.1659C8.44541 30.1659 9.99993 29.8184 11.0915 29.2127C12.5174 28.4219 14.4075 27.9872 16.413 27.9872C18.4185 27.9872 20.3086 28.4229 21.7345 29.2127C22.8261 29.8184 24.3806 30.1659 25.9994 30.1659C27.6182 30.1659 29.1727 29.8184 30.2642 29.2127C31.6902 28.4219 33.5792 27.9872 35.5858 27.9872C37.5924 27.9872 39.4824 28.4229 40.9073 29.2127C41.9988 29.8184 43.5534 30.1659 45.1722 30.1659C46.7909 30.1659 48.3455 29.8184 49.437 29.2127L49.9653 28.9197V23.7332C48.6134 24.3596 46.9478 24.718 45.1722 24.718C43.1666 24.718 41.2766 24.2823 39.8506 23.4925C38.7591 22.8868 37.2035 22.5393 35.5847 22.5393C33.9659 22.5393 32.4114 22.8868 31.3198 23.4925C29.8939 24.2834 28.0049 24.718 25.9983 24.718C23.9917 24.718 22.1027 24.2823 20.6768 23.4925C19.5852 22.8868 18.0307 22.5393 16.4119 22.5393C14.7931 22.5393 13.2386 22.8868 12.146 23.4925C10.72 24.2834 8.83105 24.718 6.82444 24.718C5.04878 24.718 3.38315 24.3596 2.03125 23.7332V28.9197L2.55959 29.2127C3.65113 29.8184 5.20565 30.1659 6.82444 30.1659H6.82662ZM45.1722 32.3447C43.1666 32.3447 41.2766 31.9089 39.8506 31.1191C38.7591 30.5134 37.2035 30.1659 35.5847 30.1659C33.9659 30.1659 32.4114 30.5134 31.3198 31.1191C29.8939 31.91 28.0049 32.3447 25.9983 32.3447C23.9917 32.3447 22.1027 31.9089 20.6768 31.1191C19.5852 30.5134 18.0307 30.1659 16.4119 30.1659C14.7931 30.1659 13.2386 30.5134 12.146 31.1191C10.72 31.91 8.83105 32.3447 6.82444 32.3447C5.04878 32.3447 3.38315 31.9863 2.03125 31.3599V35.7936C2.03125 36.7577 2.6609 37.6117 3.58359 37.8873C4.59234 38.188 5.71329 38.3372 6.82444 38.3372C8.54999 38.3372 10.2995 37.9788 11.6176 37.2479C12.9358 36.5169 14.6853 36.1585 16.4108 36.1585C18.1364 36.1585 19.8859 36.5169 21.204 37.2479C22.5221 37.9788 24.2717 38.3372 25.9972 38.3372C27.7228 38.3372 29.4723 37.9788 30.7904 37.2479C32.1085 36.5169 33.858 36.1585 35.5836 36.1585C37.3091 36.1585 39.0587 36.5169 40.3768 37.2479C41.6949 37.9788 43.4444 38.3372 45.17 38.3372C46.2811 38.3372 47.401 38.1891 48.4108 37.8873C48.8601 37.7534 49.254 37.4778 49.5337 37.1016C49.8135 36.7254 49.9641 36.2689 49.9632 35.8001V31.3599C48.6113 31.9863 46.9456 32.3447 45.17 32.3447H45.1722Z"
        fill="#977E53" />
</svg>