<svg width="52" height="52" viewBox="0 0 52 52" fill="none" xmlns="http://www.w3.org/2000/svg">
    <path fill-rule="evenodd" clip-rule="evenodd"
        d="M27.3184 7.54237H24.6816V9.35174C16.5102 9.99028 9.99033 16.5102 9.35174 24.6816H7.54237V27.3184H9.35174C9.99028 35.4898 16.5102 42.0097 24.6816 42.6483V44.4576H27.3184V42.6483C35.4898 42.0097 42.0097 35.4898 42.6483 27.3184H44.4576V24.6816H42.6483C42.0097 16.5102 35.4898 9.99033 27.3184 9.35174V7.54237ZM26 23.1434C25.212 23.1434 24.4962 23.4627 23.9795 23.9794C23.9795 23.9826 23.9667 23.9962 23.9442 24.02C23.7853 24.1888 23.1435 24.8703 23.1435 25.9999C23.1435 27.1249 23.7801 27.8042 23.9422 27.9772C23.9659 28.0025 23.9795 28.0169 23.9795 28.0204C25.0936 29.1346 26.8961 29.138 28.0136 28.0204C29.8333 26.2008 28.5046 23.1434 26 23.1434ZM27.3184 15.5352C32.0888 16.1292 35.8708 19.9109 36.4645 24.6813H40.0009C39.376 17.9659 34.0338 12.6233 27.3183 11.9988L27.3184 15.5352ZM36.4645 27.3181C35.8706 32.0885 32.0888 35.8706 27.3184 36.4643V40.0006C34.0339 39.3757 39.3764 34.0336 40.0009 27.3181L36.4645 27.3181ZM24.6816 36.4643C19.9112 35.8703 16.1292 32.0885 15.5354 27.3181H11.9991C12.624 34.0336 17.9662 39.3762 24.6816 40.0007L24.6816 36.4643ZM15.5354 24.6813C16.1294 19.9109 19.9112 16.1289 24.6816 15.5352V11.9989C17.9661 12.6237 12.6236 17.9659 11.9991 24.6814L15.5354 24.6813ZM31.5931 20.4068C26.6232 15.4356 18.0896 18.9734 18.0896 25.9999C18.0896 33.0264 26.6232 36.5642 31.5931 31.593C34.683 28.5047 34.683 23.495 31.5931 20.4068Z"
        fill="#977E53" />
</svg>